<svg xmlns="http://www.w3.org/2000/svg" xmlns:xlink="http://www.w3.org/1999/xlink" version="1.1" width="343.01829pt" height="234.55715pt" viewBox="0 0 343.01829 234.55715">
<defs>
<clipPath id="clip_0">
<path transform="matrix(1,0,0,-1,0,234.55715)" d="M47.084146 46.30171H326.08415V209.38172H47.084146Z"/>
</clipPath>
<clipPath id="clip_1">
<path transform="matrix(1,0,0,-1,0,234.55715)" d="M47.084146 46.30171H326.08415V209.38172H47.084146Z"/>
</clipPath>
<clipPath id="clip_2">
<path transform="matrix(1,0,0,-1,0,234.55715)" d="M47.084146 46.30171H326.08415V209.38172H47.084146Z"/>
</clipPath>
<clipPath id="clip_3">
<path transform="matrix(1,0,0,-1,0,234.55715)" d="M47.084146 46.30171H326.08415V209.38172H47.084146Z"/>
</clipPath>
<clipPath id="clip_4">
<path transform="matrix(1,0,0,-1,0,234.55715)" d="M47.084146 46.30171H326.08415V209.38172H47.084146Z"/>
</clipPath>
<clipPath id="clip_5">
<path transform="matrix(1,0,0,-1,0,234.55715)" d="M47.084146 46.30171H326.08415V209.38172H47.084146Z"/>
</clipPath>
<clipPath id="clip_6">
<path transform="matrix(1,0,0,-1,0,234.55715)" d="M47.084146 46.30171H326.08415V209.38172H47.084146Z"/>
</clipPath>
<clipPath id="clip_7">
<path transform="matrix(1,0,0,-1,0,234.55715)" d="M47.084146 46.30171H326.08415V209.38172H47.084146Z"/>
</clipPath>
</defs>
<g>
<path transform="matrix(1,0,0,-1,0,234.55715)" d="M0 0H343.01829V234.55715H0Z" fill="#ffffff"/>
<path transform="matrix(1,0,0,-1,0,234.55715)" d="M47.084146 46.30171H326.08415V209.38172H47.084146Z" fill="#ffffff"/>
<path transform="matrix(1,0,0,-1,0,234.55715)" d="M59.76596 46.30171V52.30171" fill="#333333"/>
<path transform="matrix(1,0,0,-1,0,234.55715)" stroke-width="1.25" stroke-linecap="butt" stroke-linejoin="round" fill="none" stroke="#333333" d="M59.76596 46.30171V52.30171"/>
<text fill="#333333" xml:space="preserve" transform="matrix(1 0 -0 1 0 234.55715)" font-size="14.94396" font-family="URWPalladioL"><tspan y="-32.109354" x="56.029973">0</tspan></text>
<path transform="matrix(1,0,0,-1,0,234.55715)" d="M110.49323 46.30171V52.30171" fill="#333333"/>
<path transform="matrix(1,0,0,-1,0,234.55715)" stroke-width="1.25" stroke-linecap="butt" stroke-linejoin="round" fill="none" stroke="#333333" d="M110.49323 46.30171V52.30171"/>
<text fill="#333333" xml:space="preserve" transform="matrix(1 0 -0 1 0 234.55715)" font-size="14.94396" font-family="URWPalladioL"><tspan y="-32.109354" x="88.07729 95.54927 103.02125 110.493228 117.9652 125.43718">100000</tspan></text>
<path transform="matrix(1,0,0,-1,0,234.55715)" d="M161.2205 46.30171V52.30171" fill="#333333"/>
<path transform="matrix(1,0,0,-1,0,234.55715)" stroke-width="1.25" stroke-linecap="butt" stroke-linejoin="round" fill="none" stroke="#333333" d="M161.2205 46.30171V52.30171"/>
<text fill="#333333" xml:space="preserve" transform="matrix(1 0 -0 1 0 234.55715)" font-size="14.94396" font-family="URWPalladioL"><tspan y="-32.109354" x="138.80457 146.27655 153.74854 161.22052 168.6925 176.16449">200000</tspan></text>
<path transform="matrix(1,0,0,-1,0,234.55715)" d="M211.94779 46.30171V52.30171" fill="#333333"/>
<path transform="matrix(1,0,0,-1,0,234.55715)" stroke-width="1.25" stroke-linecap="butt" stroke-linejoin="round" fill="none" stroke="#333333" d="M211.94779 46.30171V52.30171"/>
<text fill="#333333" xml:space="preserve" transform="matrix(1 0 -0 1 0 234.55715)" font-size="14.94396" font-family="URWPalladioL"><tspan y="-32.109354" x="189.53185 197.00383 204.47582 211.9478 219.41979 226.89177">300000</tspan></text>
<path transform="matrix(1,0,0,-1,0,234.55715)" d="M262.67506 46.30171V52.30171" fill="#333333"/>
<path transform="matrix(1,0,0,-1,0,234.55715)" stroke-width="1.25" stroke-linecap="butt" stroke-linejoin="round" fill="none" stroke="#333333" d="M262.67506 46.30171V52.30171"/>
<text fill="#333333" xml:space="preserve" transform="matrix(1 0 -0 1 0 234.55715)" font-size="14.94396" font-family="URWPalladioL"><tspan y="-32.109354" x="240.25911 247.7311 255.20308 262.67506 270.14704 277.61903">400000</tspan></text>
<path transform="matrix(1,0,0,-1,0,234.55715)" d="M313.4023 46.30171V52.30171" fill="#333333"/>
<path transform="matrix(1,0,0,-1,0,234.55715)" stroke-width="1.25" stroke-linecap="butt" stroke-linejoin="round" fill="none" stroke="#333333" d="M313.4023 46.30171V52.30171"/>
<text fill="#333333" xml:space="preserve" transform="matrix(1 0 -0 1 0 234.55715)" font-size="14.94396" font-family="URWPalladioL"><tspan y="-32.109354" x="290.9864 298.45838 305.93037 313.40235 320.87434 328.3463">500000</tspan></text>
<text fill="#333333" xml:space="preserve" transform="matrix(1 0 -0 1 0 234.55715)" font-size="16.737238" font-family="URWPalladioL"><tspan y="-11.919804" x="148.40694 158.61666 168.34099 175.92298 185.29579 194.0661 199.5057 207.5061 217.54845">Env.Steps</tspan></text>
<path transform="matrix(1,0,0,-1,0,234.55715)" d="M47.084146 59.198705H53.084146" fill="#333333"/>
<path transform="matrix(1,0,0,-1,0,234.55715)" stroke-width="1.25" stroke-linecap="butt" stroke-linejoin="round" fill="none" stroke="#333333" d="M47.084146 59.198705H53.084146"/>
<text fill="#333333" xml:space="preserve" transform="matrix(1 0 -0 1 0 234.55715)" font-size="14.94396" font-family="URWPalladioL"><tspan y="-53.852525" x="36.112165">0</tspan></text>
<path transform="matrix(1,0,0,-1,0,234.55715)" d="M47.084146 115.05603H53.084146" fill="#333333"/>
<path transform="matrix(1,0,0,-1,0,234.55715)" stroke-width="1.25" stroke-linecap="butt" stroke-linejoin="round" fill="none" stroke="#333333" d="M47.084146 115.05603H53.084146"/>
<text fill="#333333" xml:space="preserve" transform="matrix(1 0 -0 1 0 234.55715)" font-size="14.94396" font-family="URWPalladioL"><tspan y="-109.709857" x="28.640185 36.112165">20</tspan></text>
<path transform="matrix(1,0,0,-1,0,234.55715)" d="M47.084146 170.91336H53.084146" fill="#333333"/>
<path transform="matrix(1,0,0,-1,0,234.55715)" stroke-width="1.25" stroke-linecap="butt" stroke-linejoin="round" fill="none" stroke="#333333" d="M47.084146 170.91336H53.084146"/>
<text fill="#333333" xml:space="preserve" transform="matrix(1 0 -0 1 0 234.55715)" font-size="14.94396" font-family="URWPalladioL"><tspan y="-165.56719" x="28.640185 36.112165">40</tspan></text>
<text fill="#333333" xml:space="preserve" transform="matrix(0 -1 1 0 0 234.55715)" font-size="16.737238" font-family="URWPalladioL"><tspan y="19.92038" x="82.01778 87.64149 100.78022 120.78121 129.903">IQMof</tspan></text>
<text fill="#333333" xml:space="preserve" transform="matrix(0 -1 1 0 0 234.55715)" font-size="16.737238" font-family="URWPalladioL" font-style="italic"><tspan y="19.92038" x="140.94098">J</tspan></text>
<text fill="#333333" xml:space="preserve" transform="matrix(0 -1 1 0 0 234.55715)" font-size="17.440199" font-family="CMR10"><tspan y="19.92038" x="147.51853">(</tspan></text>
<text fill="#333333" xml:space="preserve" transform="matrix(0 -1 1 0 0 234.55715)" font-size="16.737238" font-family="PazoMath" font-style="italic"><tspan y="19.92038" x="154.6988">&#x03c0;</tspan></text>
<text fill="#333333" xml:space="preserve" transform="matrix(0 -1 1 0 0 234.55715)" font-size="17.440199" font-family="CMR10"><tspan y="19.92038" x="166.88332">)</tspan></text>
<g clip-path="url(#clip_0)">
<g>
<path transform="matrix(1,0,0,-1,0,234.55715)" d="M59.76596 127.329448V99.05879H72.447788 85.1296 97.81142 110.49323 123.17506 135.85688 148.5387 161.2205 173.90233 186.58414 199.26596 211.94779 224.6296 237.31142 249.99324 262.67506 275.35688 288.0387 300.72053 313.4023V127.329448H300.72053 288.0387 275.35688 262.67506 249.99324 237.31142 224.6296 211.94779 199.26596 186.58414 173.90233 161.2205 148.5387 135.85688 123.17506 110.49323 97.81142 85.1296 72.447788 59.76596Z" fill="#8064a2" fill-opacity=".1"/>
<path transform="matrix(1,0,0,-1,0,234.55715)" stroke-width="1" stroke-linecap="butt" stroke-linejoin="round" fill="none" stroke="#8064a2" stroke-opacity=".1" d="M59.76596 127.329448V99.05879H72.447788 85.1296 97.81142 110.49323 123.17506 135.85688 148.5387 161.2205 173.90233 186.58414 199.26596 211.94779 224.6296 237.31142 249.99324 262.67506 275.35688 288.0387 300.72053 313.4023V127.329448H300.72053 288.0387 275.35688 262.67506 249.99324 237.31142 224.6296 211.94779 199.26596 186.58414 173.90233 161.2205 148.5387 135.85688 123.17506 110.49323 97.81142 85.1296 72.447788 59.76596Z"/>
</g>
</g>
<g clip-path="url(#clip_1)">
<g>
<path transform="matrix(1,0,0,-1,0,234.55715)" d="M59.76596 59.198705V59.198705H72.447788 85.1296L97.81142 58.71727 110.49323 55.215024 123.17506 57.785615 135.85688 59.198705 148.5387 57.785615H161.2205L173.90233 58.138887H186.58414L199.26596 57.079069 211.94779 56.01925 224.6296 59.198705 237.31142 58.138887 249.99324 59.198705 262.67506 56.37252 275.35688 53.714437 288.0387 56.936655 300.72053 59.684728 313.4023 58.71727V63.40396L300.72053 66.160327 288.0387 61.460756 275.35688 64.682979 262.67506 62.024888 249.99324 59.198705 237.31142 60.258523 224.6296 59.198705 211.94779 62.37816 199.26596 61.31834 186.58414 60.258523H173.90233L161.2205 60.611795H148.5387L135.85688 59.198705 123.17506 60.611795 110.49323 70.63003 97.81142 63.40396 85.1296 59.198705H72.447788 59.76596Z" fill="#929292" fill-opacity=".1"/>
<path transform="matrix(1,0,0,-1,0,234.55715)" stroke-width="1" stroke-linecap="butt" stroke-linejoin="round" fill="none" stroke="#929292" stroke-opacity=".1" d="M59.76596 59.198705V59.198705H72.447788 85.1296L97.81142 58.71727 110.49323 55.215024 123.17506 57.785615 135.85688 59.198705 148.5387 57.785615H161.2205L173.90233 58.138887H186.58414L199.26596 57.079069 211.94779 56.01925 224.6296 59.198705 237.31142 58.138887 249.99324 59.198705 262.67506 56.37252 275.35688 53.714437 288.0387 56.936655 300.72053 59.684728 313.4023 58.71727V63.40396L300.72053 66.160327 288.0387 61.460756 275.35688 64.682979 262.67506 62.024888 249.99324 59.198705 237.31142 60.258523 224.6296 59.198705 211.94779 62.37816 199.26596 61.31834 186.58414 60.258523H173.90233L161.2205 60.611795H148.5387L135.85688 59.198705 123.17506 60.611795 110.49323 70.63003 97.81142 63.40396 85.1296 59.198705H72.447788 59.76596Z"/>
</g>
</g>
<g clip-path="url(#clip_2)">
<g>
<path transform="matrix(1,0,0,-1,0,234.55715)" d="M59.76596 59.198705V59.198705L72.447788 57.079069 85.1296 75.84645 97.81142 128.19776 110.49323 139.66036 123.17506 142.7245 135.85688 165.58657 148.5387 148.98313 161.2205 167.6399 173.90233 148.11069 186.58414 127.79171 199.26596 125.7724 211.94779 172.21213 224.6296 159.74935 237.31142 132.52878 249.99324 165.98912 262.67506 126.02374 275.35688 157.2234 288.0387 145.76946 300.72053 139.62627 313.4023 150.05335V173.15425L300.72053 157.51457 288.0387 177.43814 275.35688 180.87949 262.67506 152.498 249.99324 179.56142 237.31142 153.44062 224.6296 189.52501 211.94779 191.95752 199.26596 145.3017 186.58414 154.45386 173.90233 171.3731 161.2205 189.0821 148.5387 185.39594 135.85688 198.58307 123.17506 169.31165 110.49323 172.37578 97.81142 161.49547 85.1296 105.85593 72.447788 61.31834 59.76596 59.198705Z" fill="#f79646" fill-opacity=".1"/>
<path transform="matrix(1,0,0,-1,0,234.55715)" stroke-width="1" stroke-linecap="butt" stroke-linejoin="round" fill="none" stroke="#f79646" stroke-opacity=".1" d="M59.76596 59.198705V59.198705L72.447788 57.079069 85.1296 75.84645 97.81142 128.19776 110.49323 139.66036 123.17506 142.7245 135.85688 165.58657 148.5387 148.98313 161.2205 167.6399 173.90233 148.11069 186.58414 127.79171 199.26596 125.7724 211.94779 172.21213 224.6296 159.74935 237.31142 132.52878 249.99324 165.98912 262.67506 126.02374 275.35688 157.2234 288.0387 145.76946 300.72053 139.62627 313.4023 150.05335V173.15425L300.72053 157.51457 288.0387 177.43814 275.35688 180.87949 262.67506 152.498 249.99324 179.56142 237.31142 153.44062 224.6296 189.52501 211.94779 191.95752 199.26596 145.3017 186.58414 154.45386 173.90233 171.3731 161.2205 189.0821 148.5387 185.39594 135.85688 198.58307 123.17506 169.31165 110.49323 172.37578 97.81142 161.49547 85.1296 105.85593 72.447788 61.31834 59.76596 59.198705Z"/>
</g>
</g>
<g clip-path="url(#clip_3)">
<g>
<path transform="matrix(1,0,0,-1,0,234.55715)" d="M59.76596 59.198705V59.198705L72.447788 53.899614 85.1296 115.82203 97.81142 83.77283 110.49323 122.29298 123.17506 151.22959 135.85688 139.36922 148.5387 139.57129 161.2205 126.61913 173.90233 125.31752 186.58414 146.20182 199.26596 153.66916 211.94779 150.7479 224.6296 154.6297 237.31142 152.33081 249.99324 152.12383 262.67506 165.92505 275.35688 180.81978 288.0387 171.43378 300.72053 145.15895 313.4023 174.4751V189.69455L300.72053 174.32483 288.0387 192.73587 275.35688 201.96898 262.67506 179.62548 249.99324 185.97908 237.31142 170.87679 224.6296 179.74936 211.94779 176.18354 199.26596 173.26227 186.58414 173.28197 173.90233 160.65186 161.2205 170.52172 148.5387 179.91249 135.85688 172.66693 123.17506 183.14949 110.49323 159.95259 97.81142 123.99631 85.1296 147.80443 72.447788 64.497798 59.76596 59.198705Z" fill="#4bacc6" fill-opacity=".1"/>
<path transform="matrix(1,0,0,-1,0,234.55715)" stroke-width="1" stroke-linecap="butt" stroke-linejoin="round" fill="none" stroke="#4bacc6" stroke-opacity=".1" d="M59.76596 59.198705V59.198705L72.447788 53.899614 85.1296 115.82203 97.81142 83.77283 110.49323 122.29298 123.17506 151.22959 135.85688 139.36922 148.5387 139.57129 161.2205 126.61913 173.90233 125.31752 186.58414 146.20182 199.26596 153.66916 211.94779 150.7479 224.6296 154.6297 237.31142 152.33081 249.99324 152.12383 262.67506 165.92505 275.35688 180.81978 288.0387 171.43378 300.72053 145.15895 313.4023 174.4751V189.69455L300.72053 174.32483 288.0387 192.73587 275.35688 201.96898 262.67506 179.62548 249.99324 185.97908 237.31142 170.87679 224.6296 179.74936 211.94779 176.18354 199.26596 173.26227 186.58414 173.28197 173.90233 160.65186 161.2205 170.52172 148.5387 179.91249 135.85688 172.66693 123.17506 183.14949 110.49323 159.95259 97.81142 123.99631 85.1296 147.80443 72.447788 64.497798 59.76596 59.198705Z"/>
</g>
</g>
<g clip-path="url(#clip_4)">
<path transform="matrix(1,0,0,-1,0,234.55715)" stroke-width="1.5" stroke-linecap="butt" stroke-dasharray="5.55,2.4" stroke-linejoin="round" fill="none" stroke="#8064a2" d="M59.76596 113.19412H72.447788 85.1296 97.81142 110.49323 123.17506 135.85688 148.5387 161.2205 173.90233 186.58414 199.26596 211.94779 224.6296 237.31142 249.99324 262.67506 275.35688 288.0387 300.72053 313.4023"/>
</g>
<g clip-path="url(#clip_5)">
<path transform="matrix(1,0,0,-1,0,234.55715)" stroke-width="1.5" stroke-linecap="round" stroke-linejoin="round" fill="none" stroke="#929292" d="M59.76596 59.198705H72.447788 85.1296L97.81142 61.060617 110.49323 62.922525 123.17506 59.198705H135.85688 148.5387 161.2205 173.90233 186.58414 199.26596 211.94779 224.6296 237.31142 249.99324 262.67506 275.35688 288.0387L300.72053 62.922525 313.4023 61.060617"/>
</g>
<g clip-path="url(#clip_6)">
<path transform="matrix(1,0,0,-1,0,234.55715)" stroke-width="1.5" stroke-linecap="round" stroke-linejoin="round" fill="none" stroke="#f79646" d="M59.76596 59.198705H72.447788L85.1296 90.85119 97.81142 144.8466 110.49323 156.01807H123.17506L135.85688 182.08483 148.5387 167.18953 161.2205 178.361 173.90233 159.7419 186.58414 141.12279 199.26596 135.53705 211.94779 182.08483 224.6296 174.63718 237.31142 142.9847 249.99324 172.77527 262.67506 139.26088 275.35688 169.05146 288.0387 161.6038 300.72053 148.57042 313.4023 161.6038"/>
</g>
<g clip-path="url(#clip_7)">
<path transform="matrix(1,0,0,-1,0,234.55715)" stroke-width="1.5" stroke-linecap="round" stroke-linejoin="round" fill="none" stroke="#4bacc6" d="M59.76596 59.198705H72.447788L85.1296 131.81324 97.81142 103.88457 110.49323 141.12279 123.17506 167.18953 135.85688 156.01807 148.5387 159.7419 161.2205 148.57042 173.90233 142.9847 186.58414 159.7419 199.26596 163.46572H211.94779L224.6296 167.18953 237.31142 161.6038 249.99324 169.05146 262.67506 172.77527 275.35688 191.39438 288.0387 182.08483 300.72053 159.7419 313.4023 182.08483"/>
</g>
<path transform="matrix(1,0,0,-1,0,234.55715)" stroke-width="1.25" stroke-linecap="square" stroke-miterlimit="10" stroke-linejoin="miter" fill="none" stroke="#333333" d="M47.084146 46.30171V209.38172"/>
<path transform="matrix(1,0,0,-1,0,234.55715)" stroke-width="1.25" stroke-linecap="square" stroke-miterlimit="10" stroke-linejoin="miter" fill="none" stroke="#333333" d="M47.084146 46.30171H326.08415"/>
<text fill="#333333" xml:space="preserve" transform="matrix(1 0 -0 1 0 234.55715)" font-size="16.737238" font-family="URWPalladioL"><tspan y="-215.38172" x="51.249464 59.61808 69.342418 74.78202 89.544269 97.91289 106.28151 114.281909 119.83867 124.69247 133.06108 139.35439 148.64356 156.64395 162.20072 172.24306 177.09687 185.46549 194.75466 200.31142 209.75122 218.11985">antmaze-large-play-v2,</tspan></text>
<text fill="#333333" xml:space="preserve" transform="matrix(1 0 -0 1 0 234.55715)" font-size="16.737238" font-family="URWPalladioL" font-style="italic"><tspan y="-215.38172" x="227.8674">p</tspan></text>
<text fill="#333333" xml:space="preserve" transform="matrix(1 0 -0 1 0 234.55715)" font-size="12.720198" font-family="URWPalladioL" font-style="italic"><tspan y="-211.87903" x="236.60408 241.01789 246.16956 251.42311 261.62486 267.8196 272.04273">tremble</tspan></text>
<text fill="#333333" xml:space="preserve" transform="matrix(1 0 -0 1 0 234.55715)" font-size="17.440199" font-family="CMR10"><tspan y="-215.38172" x="282.58195">=</tspan></text>
<text fill="#333333" xml:space="preserve" transform="matrix(1 0 -0 1 0 234.55715)" font-size="16.737238" font-family="URWPalladioL"><tspan y="-215.38172" x="300.9973 309.36595 313.55024">0.0</tspan></text>
</g>
</svg>
